#N canvas 298 59 1069 529 10;
#X obj 22 42 tgl 15 0 empty empty empty 0 -6 0 8 -262144 -1 -1 0 1
;
#X obj 22 79 metro 250;
#X obj 22 143 neutral-harmony 6;
#X obj 23 113 bng 15 50 50 0 empty empty empty 0 -6 0 8 -262144 -1
-1;
#X floatatom 121 116 4 0 0 1 interval - -, f 4;
#X obj 21 261 makenote 120 120;
#X obj 21 309 QT-PercPlayer;
#X floatatom 35 174 5 0 0 0 - - -, f 5;
#X obj 22 205 + 60;
#X floatatom 37 233 5 0 0 0 - - -, f 5;
#X floatatom 312 149 4 0 0 2 start_interval - -, f 4;
#X text 398 216 Flashes when there are no transitions possible ("I
am stuck!");
#X obj 378 216 bng 15 250 50 0 empty empty empty 0 -6 0 8 -262144 -1
-1;
#X obj 287 120 bng 15 250 50 0 empty empty empty 0 -6 0 8 -262144 -1
-1;
#X obj 287 95 metro 200;
#X obj 287 63 tgl 15 0 empty empty empty 0 -6 0 8 -262144 -1 -1 0 1
;
#X floatatom 336 68 4 0 0 2 speed - -, f 4;
#X floatatom 319 217 5 0 0 0 - - -, f 5;
#X text 428 91 0 has 80% chance to go to 1 and 20% to go to 2 \;;
#X text 428 105 1 has 10% chance to go to 2 and 90% to go to 0 \;;
#X text 428 119 2 has a 50/50 chance to go to 1 and 0!;
#X text 21 17 1 Exemplo melódico;
#X text 283 18 2 Exemplo com probabilidades;
#X msg 416 151 clear;
#X obj 31 438 makenote 120 120;
#X obj 31 470 noteout 1;
#X msg 31 412 60 \, 64 \, 69;
#X text 138 440 Harmonia!;
#X obj 289 308 makenote 120 1020;
#X obj 290 341 noteout 1;
#X obj 286 188 markov-harmony;
#X msg 426 71 0 1 80 \, 0 2 20 \, 1 2 10 \, 1 0 90 \, 2 0 50 \, 2 1
50;
#X text 811 24 3 Histogramas;
#X obj 816 124 random 12;
#X msg 899 100 clear;
#N canvas 0 22 450 278 (subpatch) 0;
#X array array1 12 float 3;
#A 0 6 10 9 5 9 12 9 9 8 8 8 7;
#X coords 0 0 12 120 200 140 1 0 0;
#X restore 818 339 graph;
#X obj 818 296 array set array1;
#X floatatom 895 208 5 0 0 0 - - -, f 5;
#X obj 817 97 metro 200;
#X obj 817 65 tgl 15 0 empty empty empty 0 -6 0 8 -262144 -1 -1 0 1
;
#X msg 899 158 \; array1 const 0;
#X obj 900 132 bng 15 250 50 0 empty empty empty 17 7 0 10 -262144
-1 -1;
#X floatatom 894 234 5 0 0 0 - - -, f 5;
#X text 935 207 valor e index;
#X text 934 233 numero de vezes;
#X obj 792 125 bng 15 250 50 0 empty empty empty 17 7 0 10 -262144
-1 -1;
#X obj 815 175 histo;
#X obj 818 236 int;
#X obj 817 209 bng 15 250 50 0 empty empty empty 17 7 0 10 -262144
-1 -1;
#X connect 0 0 1 0;
#X connect 1 0 3 0;
#X connect 2 0 7 0;
#X connect 2 0 8 0;
#X connect 3 0 2 0;
#X connect 4 0 2 1;
#X connect 5 0 6 0;
#X connect 5 1 6 1;
#X connect 8 0 5 0;
#X connect 8 0 9 0;
#X connect 10 0 30 1;
#X connect 13 0 30 0;
#X connect 14 0 13 0;
#X connect 15 0 14 0;
#X connect 16 0 14 1;
#X connect 23 0 30 2;
#X connect 24 0 25 0;
#X connect 24 1 25 1;
#X connect 26 0 24 0;
#X connect 28 0 29 0;
#X connect 28 1 29 1;
#X connect 30 0 17 0;
#X connect 30 0 28 0;
#X connect 30 2 12 0;
#X connect 31 0 30 2;
#X connect 33 0 46 0;
#X connect 34 0 41 0;
#X connect 34 0 46 0;
#X connect 38 0 33 0;
#X connect 39 0 38 0;
#X connect 41 0 40 0;
#X connect 45 0 33 0;
#X connect 46 0 37 0;
#X connect 46 0 36 1;
#X connect 46 0 48 0;
#X connect 46 1 42 0;
#X connect 46 1 47 1;
#X connect 47 0 36 0;
#X connect 48 0 47 0;
