#N canvas 183 23 766 591 10;
#X obj 56 39 notein 1;
#X obj 55 84 stripnote;
#X msg 418 38 clear;
#N canvas 0 22 450 278 (subpatch) 0;
#X array arrayMinhasNotas 127 float 3;
#A 0 0 0 0 0 0 0 0 0 0 0 0 0 0 0 0 0 0 0 0 0 0 0 0 0 0 0 0 0 0 0 0
0 0 0 0 0 0 0 0 0 0 0 0 0 0 0 0 0 0 0 0 0 0 0 0 0 0 0 0 0 0 0 0 0 0
0 0 7 0 0 7 0 14 0 4 9 0 5 0 0 0 0 0 0 0 0 0 0 0 0 0 0 0 0 0 0 0 0
0 0 0 0 0 0 0 0 0 0 0 0 0 0 0 0 0 0 0 0 0 0 0 0 0 0 0 0 0;
#X coords 0 0 127 120 200 140 1 0 0;
#X restore 53 414 graph;
#X floatatom 106 292 5 0 0 0 - - -, f 5;
#X obj 489 44 bng 15 250 50 0 empty empty empty 17 7 0 10 -262144 -1
-1;
#X floatatom 105 318 5 0 0 0 - - -, f 5;
#X text 146 291 valor e index;
#X text 145 317 numero de vezes;
#X obj 55 245 histo;
#X obj 53 311 int;
#X obj 52 284 bng 15 250 50 0 empty empty empty 17 7 0 10 -262144 -1
-1;
#X obj 53 371 array set arrayMinhasNotas;
#X obj 540 281 prob;
#C restore;
#X obj 541 232 anal;
#X obj 583 229 bng 15 250 50 0 empty empty empty 17 7 0 10 -262144
-1 -1;
#X msg 470 74 \; arrayMinhasNotas const 0;
#X obj 541 330 makenote 120 1020;
#X obj 542 363 noteout 1;
#X obj 587 307 bng 15 250 50 0 empty empty empty 17 7 0 10 -262144
-1 -1;
#X obj 162 88 key;
#X obj 299 269 makenote 120 120;
#X obj 300 306 noteout 1;
#X obj 162 126 sel 97 98 99 100 101 102 103;
#X msg 162 167 67;
#X msg 196 168 69;
#X msg 265 167 72;
#X msg 303 169 74;
#X msg 340 169 75;
#X msg 378 171 77;
#X msg 230 168 70;
#X connect 0 0 1 0;
#X connect 0 1 1 1;
#X connect 1 0 9 0;
#X connect 2 0 5 0;
#X connect 2 0 9 0;
#X connect 2 0 14 0;
#X connect 2 0 13 0;
#X connect 5 0 16 0;
#X connect 9 0 4 0;
#X connect 9 0 11 0;
#X connect 9 0 12 1;
#X connect 9 1 6 0;
#X connect 9 1 10 1;
#X connect 10 0 12 0;
#X connect 11 0 10 0;
#X connect 13 0 17 0;
#X connect 13 1 19 0;
#X connect 14 0 13 0;
#X connect 15 0 13 0;
#X connect 17 0 18 0;
#X connect 17 1 18 1;
#X connect 20 0 23 0;
#X connect 21 0 22 0;
#X connect 21 1 22 1;
#X connect 23 0 24 0;
#X connect 23 1 25 0;
#X connect 23 2 30 0;
#X connect 23 3 26 0;
#X connect 23 4 27 0;
#X connect 23 5 28 0;
#X connect 23 6 29 0;
#X connect 24 0 21 0;
#X connect 24 0 9 0;
#X connect 24 0 14 0;
#X connect 25 0 21 0;
#X connect 25 0 9 0;
#X connect 25 0 14 0;
#X connect 26 0 21 0;
#X connect 26 0 9 0;
#X connect 26 0 14 0;
#X connect 27 0 21 0;
#X connect 27 0 9 0;
#X connect 27 0 14 0;
#X connect 28 0 21 0;
#X connect 28 0 9 0;
#X connect 28 0 14 0;
#X connect 29 0 21 0;
#X connect 29 0 9 0;
#X connect 29 0 14 0;
#X connect 30 0 21 0;
#X connect 30 0 9 0;
#X connect 30 0 14 0;
