#N canvas 68 23 404 534 10;
#X obj 32 21 tgl 15 0 empty empty empty 17 7 0 10 -262144 -1 -1 0 1
;
#X obj 32 237 metro 500;
#X floatatom 95 217 5 0 0 0 - - -, f 5;
#X obj 33 327 QT-PercPlayer;
#X obj 33 276 makenote 60 120;
#X floatatom 158 137 5 0 0 0 - - -, f 5;
#X obj 83 197 + 200;
#X floatatom 95 178 5 0 0 0 - - -, f 5;
#X msg 33 257 60;
#X obj 158 116 line 0;
#X obj 158 76 sel 1;
#X msg 158 95 0 \, 5000 60000;
#X obj 157 327 pack 0 0;
#X obj 157 353 midiformat, f 18;
#X obj 159 415 seq;
#X msg 221 377 write;
#X msg 172 377 record;
#X obj 83 156 random 0;
#X obj 64 259 bng 15 250 50 0 empty empty empty 17 7 0 10 -262144 -1
-1;
#X connect 0 0 1 0;
#X connect 0 0 10 0;
#X connect 1 0 8 0;
#X connect 1 0 17 0;
#X connect 1 0 18 0;
#X connect 4 0 3 0;
#X connect 4 0 12 0;
#X connect 4 1 3 1;
#X connect 4 1 12 1;
#X connect 5 0 17 1;
#X connect 6 0 2 0;
#X connect 6 0 1 1;
#X connect 8 0 4 0;
#X connect 9 0 5 0;
#X connect 10 0 11 0;
#X connect 11 0 9 0;
#X connect 12 0 13 0;
#X connect 13 0 14 0;
#X connect 15 0 14 0;
#X connect 16 0 14 0;
#X connect 17 0 7 0;
#X connect 17 0 6 0;
