#N canvas 712 211 450 300 10;
#X obj 48 45 key;
#X obj 48 83 sel 97 101 117 105 111;
#X msg 48 124 50;
#X msg 82 125 52;
#X msg 116 125 54;
#X msg 151 124 57;
#X msg 189 126 59;
#X obj 48 170 makenote 120 120;
#X obj 49 207 noteout 1;
#X text 263 52 Escreve aqui o teu texto!;
#X connect 0 0 1 0;
#X connect 1 0 2 0;
#X connect 1 1 3 0;
#X connect 1 2 4 0;
#X connect 1 3 5 0;
#X connect 1 4 6 0;
#X connect 2 0 7 0;
#X connect 3 0 7 0;
#X connect 4 0 7 0;
#X connect 5 0 7 0;
#X connect 6 0 7 0;
#X connect 7 0 8 0;
#X connect 7 1 8 1;
