#N canvas 543 89 779 586 10;
#X obj 157 20 adc~;
#X obj 157 90 *~;
#X obj 172 58 tgl 15 0 empty empty empty 17 7 0 10 -262144 -1 -1 1
1;
#X obj 34 190 vu 15 120 empty empty -1 -8 0 10 -66577 -1 1 0;
#X obj 33 154 - 100;
#X obj 33 126 env~;
#X obj 156 125 bonk~;
#X obj 153 155 bng 15 250 50 0 empty empty empty 17 7 0 10 -262144
-1 -1;
#X obj 183 154 unpack 0 f f;
#X floatatom 216 182 5 0 0 0 - - -, f 5;
#X text 322 86 low and high threshold (é necessário experimentar
e ajustar);
#X obj 141 380 nbx 5 14 0 0.9 0 0 empty empty empty 0 -8 0 10 -262144
-1 -1 0.9 256;
#X obj 140 324 loadbang;
#X obj 216 413 *~;
#X msg 140 352 0.9;
#X obj 217 456 dac~;
#X obj 245 414 *~;
#X msg 227 86 thresh 1.5 100;
#X obj 216 237 > 400;
#X obj 215 264 sel 1;
#X floatatom 242 212 5 0 0 0 - - -, f 5;
#X obj 498 257 tabread~ meuSom;
#N canvas 0 22 450 278 (subpatch) 0;
#X array meuSom 281191 float 2;
#X coords 0 1 281191 -1 200 140 1;
#X restore 496 314 graph;
#X obj 497 175 openpanel;
#X obj 496 151 bng 15 250 50 0 empty empty empty 17 7 0 10 -262144
-1 -1;
#X obj 497 228 soundfiler;
#X obj 216 324 tabplay~ meuSom;
#X msg 215 293 bang;
#X msg 497 202 read -resize \$1 meuSom;
#X text 279 211 threshold;
#X connect 0 0 1 0;
#X connect 1 0 5 0;
#X connect 1 0 6 0;
#X connect 2 0 1 1;
#X connect 4 0 3 0;
#X connect 5 0 4 0;
#X connect 6 1 7 0;
#X connect 6 1 8 0;
#X connect 8 1 9 0;
#X connect 9 0 18 0;
#X connect 11 0 13 1;
#X connect 11 0 16 1;
#X connect 12 0 14 0;
#X connect 13 0 15 0;
#X connect 14 0 11 0;
#X connect 16 0 15 1;
#X connect 17 0 6 0;
#X connect 18 0 19 0;
#X connect 19 0 27 0;
#X connect 20 0 18 1;
#X connect 23 0 28 0;
#X connect 24 0 23 0;
#X connect 25 0 21 0;
#X connect 26 0 13 0;
#X connect 26 0 16 0;
#X connect 27 0 26 0;
#X connect 28 0 25 0;
