#N canvas 116 101 1048 536 10;
#X floatatom 536 146 5 0 0 0 - - -, f 5;
#X obj 644 257 dac~ 1 2;
#X obj 470 227 fiddle~ 1024 1 20 16;
#X obj 325 258 route 1 2 3 4 5 6 7 8 9 10 11 12 13 14 15 16;
#X obj 15 364 noteout 1;
#N canvas 0 22 890 779 minhaDeCa 0;
#X obj 62 100 unpack;
#X obj 60 136 ftom;
#X obj 104 152 * 127;
#X floatatom 60 195 5 0 0 0 - - -, f 5;
#X floatatom 99 196 5 0 0 0 - - -, f 5;
#X obj 53 229 makenote 127 100;
#X obj 60 63 inlet;
#X obj 62 258 outlet;
#X obj 125 262 outlet;
#X connect 0 0 1 0;
#X connect 0 1 2 0;
#X connect 1 0 3 0;
#X connect 2 0 4 0;
#X connect 3 0 5 0;
#X connect 4 0 5 1;
#X connect 5 0 7 0;
#X connect 5 1 8 0;
#X connect 6 0 0 0;
#X restore 15 330 pd minhaDeCa;
#N canvas 0 22 364 433 minhaDeCa 0;
#X obj 62 100 unpack;
#X obj 60 136 ftom;
#X obj 104 152 * 127;
#X floatatom 60 195 5 0 0 0 - - -, f 5;
#X floatatom 99 196 5 0 0 0 - - -, f 5;
#X obj 53 229 makenote 127 100;
#X obj 60 63 inlet;
#X obj 62 258 outlet;
#X obj 125 262 outlet;
#X connect 0 0 1 0;
#X connect 0 1 2 0;
#X connect 1 0 3 0;
#X connect 2 0 4 0;
#X connect 3 0 5 0;
#X connect 4 0 5 1;
#X connect 5 0 7 0;
#X connect 5 1 8 0;
#X connect 6 0 0 0;
#X restore 106 329 pd minhaDeCa;
#N canvas 0 22 890 779 minhaDeCa 0;
#X obj 62 100 unpack;
#X obj 60 136 ftom;
#X obj 104 152 * 127;
#X floatatom 60 195 5 0 0 0 - - -, f 5;
#X floatatom 99 196 5 0 0 0 - - -, f 5;
#X obj 53 229 makenote 127 100;
#X obj 60 63 inlet;
#X obj 62 258 outlet;
#X obj 125 262 outlet;
#X connect 0 0 1 0;
#X connect 0 1 2 0;
#X connect 1 0 3 0;
#X connect 2 0 4 0;
#X connect 3 0 5 0;
#X connect 4 0 5 1;
#X connect 5 0 7 0;
#X connect 5 1 8 0;
#X connect 6 0 0 0;
#X restore 197 328 pd minhaDeCa;
#N canvas 0 22 890 779 minhaDeCa 0;
#X obj 62 100 unpack;
#X obj 60 136 ftom;
#X obj 104 152 * 127;
#X floatatom 60 195 5 0 0 0 - - -, f 5;
#X floatatom 99 196 5 0 0 0 - - -, f 5;
#X obj 53 229 makenote 127 100;
#X obj 60 63 inlet;
#X obj 62 258 outlet;
#X obj 125 262 outlet;
#X connect 0 0 1 0;
#X connect 0 1 2 0;
#X connect 1 0 3 0;
#X connect 2 0 4 0;
#X connect 3 0 5 0;
#X connect 4 0 5 1;
#X connect 5 0 7 0;
#X connect 5 1 8 0;
#X connect 6 0 0 0;
#X restore 289 328 pd minhaDeCa;
#N canvas 0 22 890 779 minhaDeCa 0;
#X obj 62 100 unpack;
#X obj 60 136 ftom;
#X obj 104 152 * 127;
#X floatatom 60 195 5 0 0 0 - - -, f 5;
#X floatatom 99 196 5 0 0 0 - - -, f 5;
#X obj 53 229 makenote 127 100;
#X obj 60 63 inlet;
#X obj 62 258 outlet;
#X obj 125 262 outlet;
#X connect 0 0 1 0;
#X connect 0 1 2 0;
#X connect 1 0 3 0;
#X connect 2 0 4 0;
#X connect 3 0 5 0;
#X connect 4 0 5 1;
#X connect 5 0 7 0;
#X connect 5 1 8 0;
#X connect 6 0 0 0;
#X restore 382 330 pd minhaDeCa;
#N canvas 0 22 890 779 minhaDeCa 0;
#X obj 62 100 unpack;
#X obj 60 136 ftom;
#X obj 104 152 * 127;
#X floatatom 60 195 5 0 0 0 - - -, f 5;
#X floatatom 99 196 5 0 0 0 - - -, f 5;
#X obj 53 229 makenote 127 100;
#X obj 60 63 inlet;
#X obj 62 258 outlet;
#X obj 125 262 outlet;
#X connect 0 0 1 0;
#X connect 0 1 2 0;
#X connect 1 0 3 0;
#X connect 2 0 4 0;
#X connect 3 0 5 0;
#X connect 4 0 5 1;
#X connect 5 0 7 0;
#X connect 5 1 8 0;
#X connect 6 0 0 0;
#X restore 473 329 pd minhaDeCa;
#N canvas 0 22 890 779 minhaDeCa 0;
#X obj 62 100 unpack;
#X obj 60 136 ftom;
#X obj 104 152 * 127;
#X floatatom 60 195 5 0 0 0 - - -, f 5;
#X floatatom 99 196 5 0 0 0 - - -, f 5;
#X obj 53 229 makenote 127 100;
#X obj 60 63 inlet;
#X obj 62 258 outlet;
#X obj 125 262 outlet;
#X connect 0 0 1 0;
#X connect 0 1 2 0;
#X connect 1 0 3 0;
#X connect 2 0 4 0;
#X connect 3 0 5 0;
#X connect 4 0 5 1;
#X connect 5 0 7 0;
#X connect 5 1 8 0;
#X connect 6 0 0 0;
#X restore 564 328 pd minhaDeCa;
#N canvas 0 22 890 779 minhaDeCa 0;
#X obj 62 100 unpack;
#X obj 60 136 ftom;
#X obj 104 152 * 127;
#X floatatom 60 195 5 0 0 0 - - -, f 5;
#X floatatom 99 196 5 0 0 0 - - -, f 5;
#X obj 53 229 makenote 127 100;
#X obj 60 63 inlet;
#X obj 62 258 outlet;
#X obj 125 262 outlet;
#X connect 0 0 1 0;
#X connect 0 1 2 0;
#X connect 1 0 3 0;
#X connect 2 0 4 0;
#X connect 3 0 5 0;
#X connect 4 0 5 1;
#X connect 5 0 7 0;
#X connect 5 1 8 0;
#X connect 6 0 0 0;
#X restore 656 328 pd minhaDeCa;
#N canvas 0 22 890 779 minhaDeCa 0;
#X obj 62 100 unpack;
#X obj 60 136 ftom;
#X obj 104 152 * 127;
#X floatatom 60 195 5 0 0 0 - - -, f 5;
#X floatatom 99 196 5 0 0 0 - - -, f 5;
#X obj 53 229 makenote 127 100;
#X obj 60 63 inlet;
#X obj 62 258 outlet;
#X obj 125 262 outlet;
#X connect 0 0 1 0;
#X connect 0 1 2 0;
#X connect 1 0 3 0;
#X connect 2 0 4 0;
#X connect 3 0 5 0;
#X connect 4 0 5 1;
#X connect 5 0 7 0;
#X connect 5 1 8 0;
#X connect 6 0 0 0;
#X restore 41 406 pd minhaDeCa;
#N canvas 0 22 890 779 minhaDeCa 0;
#X obj 62 100 unpack;
#X obj 60 136 ftom;
#X obj 104 152 * 127;
#X floatatom 60 195 5 0 0 0 - - -, f 5;
#X floatatom 99 196 5 0 0 0 - - -, f 5;
#X obj 53 229 makenote 127 100;
#X obj 60 63 inlet;
#X obj 62 258 outlet;
#X obj 125 262 outlet;
#X connect 0 0 1 0;
#X connect 0 1 2 0;
#X connect 1 0 3 0;
#X connect 2 0 4 0;
#X connect 3 0 5 0;
#X connect 4 0 5 1;
#X connect 5 0 7 0;
#X connect 5 1 8 0;
#X connect 6 0 0 0;
#X restore 132 406 pd minhaDeCa;
#N canvas 0 22 890 779 minhaDeCa 0;
#X obj 62 100 unpack;
#X obj 60 136 ftom;
#X obj 104 152 * 127;
#X floatatom 60 195 5 0 0 0 - - -, f 5;
#X floatatom 99 196 5 0 0 0 - - -, f 5;
#X obj 53 229 makenote 127 100;
#X obj 60 63 inlet;
#X obj 62 258 outlet;
#X obj 125 262 outlet;
#X connect 0 0 1 0;
#X connect 0 1 2 0;
#X connect 1 0 3 0;
#X connect 2 0 4 0;
#X connect 3 0 5 0;
#X connect 4 0 5 1;
#X connect 5 0 7 0;
#X connect 5 1 8 0;
#X connect 6 0 0 0;
#X restore 223 405 pd minhaDeCa;
#N canvas 0 22 890 779 minhaDeCa 0;
#X obj 62 100 unpack;
#X obj 60 136 ftom;
#X obj 104 152 * 127;
#X floatatom 60 195 5 0 0 0 - - -, f 5;
#X floatatom 99 196 5 0 0 0 - - -, f 5;
#X obj 53 229 makenote 127 100;
#X obj 60 63 inlet;
#X obj 62 258 outlet;
#X obj 125 262 outlet;
#X connect 0 0 1 0;
#X connect 0 1 2 0;
#X connect 1 0 3 0;
#X connect 2 0 4 0;
#X connect 3 0 5 0;
#X connect 4 0 5 1;
#X connect 5 0 7 0;
#X connect 5 1 8 0;
#X connect 6 0 0 0;
#X restore 315 404 pd minhaDeCa;
#N canvas 0 22 890 779 minhaDeCa 0;
#X obj 62 100 unpack;
#X obj 60 136 ftom;
#X obj 104 152 * 127;
#X floatatom 60 195 5 0 0 0 - - -, f 5;
#X floatatom 99 196 5 0 0 0 - - -, f 5;
#X obj 53 229 makenote 127 100;
#X obj 60 63 inlet;
#X obj 62 258 outlet;
#X obj 125 262 outlet;
#X connect 0 0 1 0;
#X connect 0 1 2 0;
#X connect 1 0 3 0;
#X connect 2 0 4 0;
#X connect 3 0 5 0;
#X connect 4 0 5 1;
#X connect 5 0 7 0;
#X connect 5 1 8 0;
#X connect 6 0 0 0;
#X restore 408 406 pd minhaDeCa;
#N canvas 0 22 890 779 minhaDeCa 0;
#X obj 62 100 unpack;
#X obj 60 136 ftom;
#X obj 104 152 * 127;
#X floatatom 60 195 5 0 0 0 - - -, f 5;
#X floatatom 99 196 5 0 0 0 - - -, f 5;
#X obj 53 229 makenote 127 100;
#X obj 60 63 inlet;
#X obj 62 258 outlet;
#X obj 125 262 outlet;
#X connect 0 0 1 0;
#X connect 0 1 2 0;
#X connect 1 0 3 0;
#X connect 2 0 4 0;
#X connect 3 0 5 0;
#X connect 4 0 5 1;
#X connect 5 0 7 0;
#X connect 5 1 8 0;
#X connect 6 0 0 0;
#X restore 499 406 pd minhaDeCa;
#N canvas 0 22 890 779 minhaDeCa 0;
#X obj 62 100 unpack;
#X obj 60 136 ftom;
#X obj 104 152 * 127;
#X floatatom 60 195 5 0 0 0 - - -, f 5;
#X floatatom 99 196 5 0 0 0 - - -, f 5;
#X obj 53 229 makenote 127 100;
#X obj 60 63 inlet;
#X obj 62 258 outlet;
#X obj 125 262 outlet;
#X connect 0 0 1 0;
#X connect 0 1 2 0;
#X connect 1 0 3 0;
#X connect 2 0 4 0;
#X connect 3 0 5 0;
#X connect 4 0 5 1;
#X connect 5 0 7 0;
#X connect 5 1 8 0;
#X connect 6 0 0 0;
#X restore 590 405 pd minhaDeCa;
#N canvas 0 22 890 779 minhaDeCa 0;
#X obj 62 100 unpack;
#X obj 60 136 ftom;
#X obj 104 152 * 127;
#X floatatom 60 195 5 0 0 0 - - -, f 5;
#X floatatom 99 196 5 0 0 0 - - -, f 5;
#X obj 53 229 makenote 127 100;
#X obj 60 63 inlet;
#X obj 62 258 outlet;
#X obj 125 262 outlet;
#X connect 0 0 1 0;
#X connect 0 1 2 0;
#X connect 1 0 3 0;
#X connect 2 0 4 0;
#X connect 3 0 5 0;
#X connect 4 0 5 1;
#X connect 5 0 7 0;
#X connect 5 1 8 0;
#X connect 6 0 0 0;
#X restore 682 404 pd minhaDeCa;
#X obj 107 364 noteout 2;
#X obj 198 363 noteout 3;
#X obj 289 362 noteout 4;
#X obj 382 364 noteout 5;
#X obj 474 363 noteout 6;
#X obj 565 363 noteout 7;
#X obj 656 362 noteout 8;
#X obj 41 441 noteout 9;
#X obj 133 440 noteout 10;
#X obj 224 439 noteout 11;
#X obj 315 439 noteout 12;
#X obj 408 441 noteout 13;
#X obj 500 440 noteout 14;
#X obj 591 439 noteout 15;
#X obj 682 439 noteout 16;
#X obj 644 234 *~;
#X obj 686 234 *~;
#X floatatom 701 192 5 0 1 0 - - -, f 5;
#X obj 15 120 tabread~ meuSom;
#N canvas 0 22 450 278 (subpatch) 0;
#X array meuSom 4e+06 float 2;
#X coords 0 1 4e+06 -1 200 140 1;
#X restore 168 22 graph;
#X obj 15 39 openpanel;
#X obj 15 15 bng 15 250 50 0 empty empty empty 17 7 0 10 -262144 -1
-1;
#X obj 15 92 soundfiler;
#X obj 471 106 tabplay~ meuSom;
#X msg 15 66 read -resize \$1 meuSom;
#X msg 471 72 bang;
#X obj 470 173 *~ 20;
#X obj 509 172 *~ 20;
#X text 739 189 mix real audio;
#X text 38 14 1 load speech;
#X text 574 144 amplify sound a lot!;
#X text 507 70 2 bang to play!;
#X connect 0 0 47 1;
#X connect 0 0 48 1;
#X connect 2 4 3 0;
#X connect 3 0 5 0;
#X connect 3 1 6 0;
#X connect 3 2 7 0;
#X connect 3 3 8 0;
#X connect 3 4 9 0;
#X connect 3 5 10 0;
#X connect 3 6 11 0;
#X connect 3 7 12 0;
#X connect 3 8 13 0;
#X connect 3 9 14 0;
#X connect 3 10 15 0;
#X connect 3 11 16 0;
#X connect 3 12 17 0;
#X connect 3 13 18 0;
#X connect 3 14 19 0;
#X connect 3 15 20 0;
#X connect 5 0 4 0;
#X connect 5 1 4 1;
#X connect 6 0 21 0;
#X connect 6 1 21 1;
#X connect 7 0 22 0;
#X connect 7 1 22 1;
#X connect 8 0 23 0;
#X connect 8 1 23 1;
#X connect 9 0 24 0;
#X connect 9 1 24 1;
#X connect 10 0 25 0;
#X connect 10 1 25 1;
#X connect 11 0 26 0;
#X connect 11 1 26 1;
#X connect 12 0 27 0;
#X connect 12 1 27 1;
#X connect 13 0 28 0;
#X connect 13 1 28 1;
#X connect 14 0 29 0;
#X connect 14 1 29 1;
#X connect 15 0 30 0;
#X connect 15 1 30 1;
#X connect 16 0 31 0;
#X connect 16 1 31 1;
#X connect 17 0 32 0;
#X connect 17 1 32 1;
#X connect 18 0 33 0;
#X connect 18 1 33 1;
#X connect 19 0 34 0;
#X connect 19 1 34 1;
#X connect 20 0 35 0;
#X connect 20 1 35 1;
#X connect 36 0 1 0;
#X connect 37 0 1 1;
#X connect 38 0 37 1;
#X connect 38 0 36 1;
#X connect 41 0 45 0;
#X connect 42 0 41 0;
#X connect 43 0 39 0;
#X connect 44 0 47 0;
#X connect 44 0 48 0;
#X connect 45 0 43 0;
#X connect 46 0 44 0;
#X connect 47 0 2 0;
#X connect 47 0 36 0;
#X connect 48 0 37 0;
