#N canvas 532 75 864 690 10;
#X obj 48 35 adc~ 1;
#X obj 81 70 env~, f 5;
#X obj 81 97 dbtoa;
#X floatatom 81 127 20 0 0 0 - - -, f 20;
#X obj 48 361 *~, f 6;
#X obj 81 158 > 1000;
#X obj 81 231 sel 1;
#X msg 81 264 0 \, 1 50;
#X msg 142 263 1 \, 0 50;
#X floatatom 126 157 5 0 0 0 - - -, f 5;
#X obj 81 300 line, f 8;
#X floatatom 81 329 5 0 0 0 - - -, f 5;
#X obj 130 233 tgl 15 0 empty empty empty 17 7 0 10 -262144 -1 -1 1
1;
#X obj 81 193 change;
#X floatatom 48 432 5 0 0 0 - - -, f 5;
#X obj 48 400 sigmund~ notes;
#X obj 48 461 makenote 120 120;
#X obj 47 494 noteout 1, f 32;
#X connect 0 0 1 0;
#X connect 0 0 4 0;
#X connect 1 0 2 0;
#X connect 2 0 3 0;
#X connect 3 0 5 0;
#X connect 4 0 15 0;
#X connect 5 0 13 0;
#X connect 6 0 7 0;
#X connect 6 1 8 0;
#X connect 7 0 10 0;
#X connect 8 0 10 0;
#X connect 9 0 5 1;
#X connect 10 0 11 0;
#X connect 11 0 4 1;
#X connect 13 0 12 0;
#X connect 13 0 6 0;
#X connect 14 0 16 0;
#X connect 15 0 14 0;
#X connect 16 0 17 0;
#X connect 16 1 17 1;
