#N canvas 0 23 796 554 10;
#X obj 48 21 adc~ 1;
#X obj 81 70 env~, f 5;
#X obj 81 97 dbtoa;
#X floatatom 81 127 20 0 0 0 - - -, f 20;
#X obj 48 361 *~, f 6;
#X obj 81 158 > 1000;
#X obj 81 231 sel 1;
#X msg 81 264 0 \, 1 50;
#X msg 142 263 1 \, 0 50;
#X floatatom 126 157 5 0 0 0 - - -, f 5;
#X obj 81 300 line, f 8;
#X floatatom 81 329 5 0 0 0 - - -, f 5;
#X obj 130 233 tgl 15 0 empty empty empty 17 7 0 10 -262144 -1 -1 0
1;
#X obj 81 193 change;
#X floatatom 48 444 5 0 0 0 - - -, f 5;
#X obj 48 400 sigmund~ notes;
#X obj 47 501 noteout 1, f 32;
#X obj 269 406 bonk~;
#X obj 184 440 send nota;
#X obj 269 439 send ataque;
#X obj 404 19 receive nota;
#X obj 404 63 anal;
#X obj 400 436 prob;
#C restore;
#X msg 248 18 clear;
#X obj 248 52 send reset;
#X obj 489 18 receive reset;
#X obj 400 475 makenote 120 1020;
#X obj 400 508 noteout 1;
#X obj 639 93 timer;
#X obj 666 51 bng 15 250 50 0 empty empty empty 17 7 0 10 -262144 -1
-1;
#X floatatom 639 123 5 0 0 0 - - -, f 5;
#X obj 639 268 prob;
#C restore;
#X obj 681 268 bng 15 250 50 0 empty empty empty 17 7 0 10 -262144
-1 -1;
#X obj 682 298 bng 15 250 50 0 empty empty empty 17 7 0 10 -262144
-1 -1;
#X obj 613 331 metro;
#X obj 613 303 tgl 15 0 empty empty empty 17 7 0 10 -262144 -1 -1 0
1;
#X floatatom 667 401 5 0 0 0 - - -, f 5;
#X obj 639 149 int;
#X floatatom 639 177 5 0 0 0 - - -, f 5;
#X obj 639 202 anal 15000;
#X obj 550 176 receive reset;
#X obj 666 19 receive ataque;
#X obj 613 363 bng 15 250 50 0 empty empty empty 17 7 0 10 -262144
-1 -1;
#X obj 49 48 *~;
#X obj 78 48 tgl 15 0 empty empty empty 17 7 0 10 -262144 -1 -1 1 1
;
#X obj 48 468 makenote 120 100;
#X obj 434 435 bng 15 250 50 0 empty empty empty 17 7 0 10 -262144
-1 -1;
#X floatatom 499 200 5 0 0 0 - - -, f 5;
#X connect 0 0 43 0;
#X connect 1 0 2 0;
#X connect 2 0 3 0;
#X connect 3 0 5 0;
#X connect 4 0 15 0;
#X connect 4 0 17 0;
#X connect 5 0 13 0;
#X connect 6 0 7 0;
#X connect 6 1 8 0;
#X connect 7 0 10 0;
#X connect 8 0 10 0;
#X connect 9 0 5 1;
#X connect 10 0 11 0;
#X connect 11 0 4 1;
#X connect 13 0 12 0;
#X connect 13 0 6 0;
#X connect 14 0 45 0;
#X connect 15 0 18 0;
#X connect 15 0 14 0;
#X connect 17 0 19 0;
#X connect 20 0 21 0;
#X connect 21 0 22 0;
#X connect 22 0 26 0;
#X connect 22 1 46 0;
#X connect 23 0 24 0;
#X connect 25 0 21 0;
#X connect 25 0 22 0;
#X connect 26 0 27 0;
#X connect 26 1 27 1;
#X connect 28 0 30 0;
#X connect 29 0 28 1;
#X connect 29 0 28 0;
#X connect 30 0 37 0;
#X connect 31 0 34 1;
#X connect 31 0 36 0;
#X connect 31 1 33 0;
#X connect 32 0 31 0;
#X connect 34 0 32 0;
#X connect 34 0 42 0;
#X connect 35 0 34 0;
#X connect 36 0 26 2;
#X connect 37 0 38 0;
#X connect 38 0 39 0;
#X connect 39 0 31 0;
#X connect 40 0 39 0;
#X connect 40 0 31 0;
#X connect 41 0 29 0;
#X connect 42 0 22 0;
#X connect 43 0 4 0;
#X connect 43 0 1 0;
#X connect 44 0 43 1;
#X connect 45 0 16 0;
#X connect 45 1 16 1;
#X connect 47 0 31 0;
#X connect 47 0 22 0;
