#N canvas 748 297 450 300 10;
#X obj 48 45 key;
#X obj 48 170 makenote 120 120;
#X obj 49 207 noteout 1;
#X text 277 32 Escreve aqui o teu texto!;
#X obj 48 83 sel 97 98 99 100 101 102 103;
#X msg 48 124 67;
#X msg 82 125 69;
#X msg 151 124 72;
#X msg 189 126 74;
#X msg 226 126 75;
#X msg 264 128 77;
#X msg 116 125 70;
#X text 139 214 Escala de Lá menor. letra A = pitch La (440hz \, 67
Midi) etc..;
#X connect 0 0 4 0;
#X connect 1 0 2 0;
#X connect 1 1 2 1;
#X connect 4 0 5 0;
#X connect 4 1 6 0;
#X connect 4 2 11 0;
#X connect 4 3 7 0;
#X connect 4 4 8 0;
#X connect 4 5 9 0;
#X connect 4 6 10 0;
#X connect 5 0 1 0;
#X connect 6 0 1 0;
#X connect 7 0 1 0;
#X connect 8 0 1 0;
#X connect 9 0 1 0;
#X connect 10 0 1 0;
#X connect 11 0 1 0;
