#N canvas 1610 119 646 484 10;
#X obj 95 394 makenote 120 120;
#X obj 95 298 < 10;
#X obj 95 324 sel 1;
#X obj 187 123 vsl 15 128 0 500 0 0 empty empty empty 0 -9 0 10 -262144
-1 -1 8003 1;
#X floatatom 187 264 5 0 0 0 - - -, f 5;
#X obj 95 232 bng 15 250 50 0 empty empty empty 17 7 0 10 -262144 -1
-1;
#X msg 95 359 60;
#X obj 95 258 random 500;
#X obj 95 204 metro 250;
#X obj 94 177 tgl 15 0 empty empty empty 17 7 0 10 -262144 -1 -1 0
1;
#X obj 131 361 bng 15 250 50 0 empty empty empty 17 7 0 10 -262144
-1 -1;
#X obj 95 430 QT-PercPlayer;
#X text 214 241 menos provável;
#X text 211 118 mais provável;
#X floatatom 53 300 5 0 0 0 - - -, f 5;
#X obj 396 46 osc~ 100;
#X obj 397 77 snapshot~;
#X floatatom 399 113 5 0 0 0 - - -, f 5;
#X obj 340 20 tgl 15 0 empty empty empty 17 7 0 10 -262144 -1 -1 1
1;
#X obj 341 44 metro 5;
#X floatatom 399 17 5 0 0 0 - - -, f 5;
#X obj 398 144 abs;
#X floatatom 395 176 5 0 0 0 - - -, f 5;
#X obj 398 206 * 500;
#X floatatom 141 175 5 0 0 0 - - -, f 5;
#X connect 0 0 11 0;
#X connect 0 1 11 1;
#X connect 1 0 2 0;
#X connect 2 0 6 0;
#X connect 2 0 10 0;
#X connect 3 0 4 0;
#X connect 4 0 1 1;
#X connect 5 0 7 0;
#X connect 6 0 0 0;
#X connect 7 0 1 0;
#X connect 7 0 14 0;
#X connect 8 0 5 0;
#X connect 9 0 8 0;
#X connect 15 0 16 0;
#X connect 16 0 17 0;
#X connect 17 0 21 0;
#X connect 18 0 19 0;
#X connect 19 0 16 0;
#X connect 20 0 15 0;
#X connect 21 0 22 0;
#X connect 22 0 23 0;
#X connect 23 0 3 0;
#X connect 24 0 8 1;
