#N canvas 252 110 740 285 10;
#X obj 341 104 random 50;
#X obj 341 50 tgl 15 0 empty empty empty 17 7 0 10 -262144 -1 -1 0
1;
#X obj 341 74 metro 250;
#X obj 341 130 makenote 120 120;
#X obj 341 188 midiformat, f 24;
#X text 497 188 instalar biblioteca cyclone;
#X obj 31 18 cnv 15 200 20 empty empty empty 20 12 0 14 -257985 -66577
0;
#X text 134 53;
#X obj 129 50 cnv 15 200 20 empty empty empty 20 12 0 14 -257985 -66577
0;
#X obj 341 153 pack 0 0;
#X obj 304 228 seq;
#X msg 304 19 record;
#X msg 240 203 write;
#X text 34 17 1: press record;
#X text 131 49 2: start recording MIDI as lists;
#X obj 27 202 cnv 15 200 20 empty empty empty 20 12 0 14 -257985 -66577
0;
#X text 44 199 3: stop and save MIDI file;
#X text 333 230 instalar biblioteca cyclone;
#X connect 0 0 3 0;
#X connect 1 0 2 0;
#X connect 2 0 0 0;
#X connect 3 0 9 0;
#X connect 3 1 9 1;
#X connect 4 0 10 0;
#X connect 9 0 4 0;
#X connect 11 0 10 0;
#X connect 12 0 10 0;
