#N canvas 42 52 779 503 10;
#X obj 157 20 adc~;
#X obj 157 90 *~;
#X obj 172 58 tgl 15 0 empty empty empty 17 7 0 10 -262144 -1 -1 0
1;
#X obj 34 190 vu 15 120 empty empty -1 -8 0 10 -66577 -1 1 0;
#X obj 33 154 - 100;
#X obj 33 126 env~;
#X obj 156 125 bonk~;
#X obj 153 155 bng 15 250 50 0 empty empty empty 17 7 0 10 -262144
-1 -1;
#X obj 183 154 unpack 0 f f;
#X floatatom 216 182 5 0 0 0 - - -, f 5;
#X text 322 86 low and high threshold (é necessário experimentar
e ajustar);
#X msg 227 86 thresh 1.5 100;
#X obj 216 237 > 400;
#X obj 215 264 sel 1;
#X floatatom 242 212 5 0 0 0 - - -, f 5;
#X text 279 211 threshold;
#X text 254 182 análise do áudio em tempo real;
#X obj 215 294 bng 15 250 50 0 empty empty empty 17 7 0 10 -262144
-1 -1;
#X obj 214 456 noteout 1;
#X obj 215 319 random 5;
#X obj 215 344 sel 0 1 2 3 4;
#X msg 251 374 62;
#X msg 293 373 64;
#X msg 330 373 67;
#X msg 380 374 69;
#X msg 214 374 48;
#X floatatom 472 406 5 0 0 0 - - -, f 5;
#X obj 471 373 + 10;
#X obj 472 342 random 50;
#X obj 214 423 makenote 120 4000;
#X connect 0 0 1 0;
#X connect 1 0 5 0;
#X connect 1 0 6 0;
#X connect 2 0 1 1;
#X connect 4 0 3 0;
#X connect 5 0 4 0;
#X connect 6 1 7 0;
#X connect 6 1 8 0;
#X connect 8 1 9 0;
#X connect 9 0 12 0;
#X connect 11 0 6 0;
#X connect 12 0 13 0;
#X connect 13 0 17 0;
#X connect 14 0 12 1;
#X connect 17 0 19 0;
#X connect 17 0 28 0;
#X connect 19 0 20 0;
#X connect 20 0 25 0;
#X connect 20 1 21 0;
#X connect 20 2 22 0;
#X connect 20 3 23 0;
#X connect 20 4 24 0;
#X connect 21 0 29 0;
#X connect 22 0 29 0;
#X connect 23 0 29 0;
#X connect 24 0 29 0;
#X connect 25 0 29 0;
#X connect 27 0 26 0;
#X connect 27 0 29 1;
#X connect 28 0 27 0;
#X connect 29 0 18 0;
#X connect 29 1 18 1;
