#N canvas 143 46 584 463 10;
#X obj 112 83 metro 250;
#X obj 112 54 tgl 15 0 empty empty empty 17 7 0 10 -262144 -1 -1 1
1;
#X obj 112 148 counter 0 0 3;
#X floatatom 111 192 5 0 0 0 - - -, f 5;
#X obj 217 52 bng 15 250 50 0 empty empty empty 17 7 0 10 -262144 -1
-1;
#X obj 217 80 random 8;
#X obj 219 106 + 1;
#X floatatom 217 138 5 0 0 0 - - -, f 5;
#X msg 113 263 62;
#X msg 144 264 64;
#X msg 183 265 65;
#X msg 219 266 67;
#X msg 259 266 69;
#X msg 302 266 71;
#X msg 340 268 72;
#X msg 375 266 74;
#X obj 115 310 makenote 120 100;
#X obj 115 342 noteout 1;
#X obj 110 219 sel 0 1 2 3 4 5 6 7 8;
#X msg 409 267 75;
#X connect 0 0 2 0;
#X connect 1 0 0 0;
#X connect 2 0 3 0;
#X connect 3 0 18 0;
#X connect 4 0 5 0;
#X connect 5 0 6 0;
#X connect 6 0 2 4;
#X connect 6 0 7 0;
#X connect 8 0 16 0;
#X connect 9 0 16 0;
#X connect 10 0 16 0;
#X connect 11 0 16 0;
#X connect 12 0 16 0;
#X connect 13 0 16 0;
#X connect 14 0 16 0;
#X connect 15 0 16 0;
#X connect 16 0 17 0;
#X connect 16 1 17 1;
#X connect 18 0 8 0;
#X connect 18 1 9 0;
#X connect 18 2 10 0;
#X connect 18 3 11 0;
#X connect 18 4 12 0;
#X connect 18 5 13 0;
#X connect 18 6 14 0;
#X connect 18 7 15 0;
#X connect 18 8 19 0;
#X connect 19 0 16 0;
